<svg xmlns="http://www.w3.org/2000/svg" xmlns:xlink="http://www.w3.org/1999/xlink" width="18" height="18" viewBox="0 0 18 18">
  <defs>
    <clipPath id="clip-path">
      <rect id="Rectangle_148552" data-name="Rectangle 148552" width="18" height="18" fill="#1b1d21" stroke="#707070" stroke-width="1"/>
    </clipPath>
  </defs>
  <g id="Mask_Group_456" data-name="Mask Group 456" clip-path="url(#clip-path)">
    <g id="svgexport-17_1_" data-name="svgexport-17 (1)">
      <path id="Path_85147" data-name="Path 85147" d="M3.3,0H2.461A2.464,2.464,0,0,0,0,2.461V15.539A2.464,2.464,0,0,0,2.461,18H3.3a2.464,2.464,0,0,0,2.461-2.461V2.461A2.464,2.464,0,0,0,3.3,0ZM4.359,15.539A1.056,1.056,0,0,1,3.3,16.594H2.461a1.056,1.056,0,0,1-1.055-1.055V2.461A1.056,1.056,0,0,1,2.461,1.406H3.3A1.056,1.056,0,0,1,4.359,2.461ZM15.539,0H9.7A2.464,2.464,0,0,0,7.242,2.461V3.3A2.464,2.464,0,0,0,9.7,5.766h5.836A2.464,2.464,0,0,0,18,3.3V2.461A2.464,2.464,0,0,0,15.539,0Zm1.055,3.3a1.056,1.056,0,0,1-1.055,1.055H9.7A1.056,1.056,0,0,1,8.648,3.3V2.461A1.056,1.056,0,0,1,9.7,1.406h5.836a1.056,1.056,0,0,1,1.055,1.055ZM15.539,7.277H9.7A2.464,2.464,0,0,0,7.242,9.738v5.8A2.464,2.464,0,0,0,9.7,18h5.836A2.464,2.464,0,0,0,18,15.539a.7.7,0,0,0-1.406,0,1.056,1.056,0,0,1-1.055,1.055H9.7a1.056,1.056,0,0,1-1.055-1.055v-5.8A1.056,1.056,0,0,1,9.7,8.684h5.836a1.056,1.056,0,0,1,1.055,1.055v2.285a.7.7,0,0,0,1.406,0V9.738A2.464,2.464,0,0,0,15.539,7.277Z" fill="#1b1d21"/>
    </g>
  </g>
</svg>
