<svg xmlns="http://www.w3.org/2000/svg" xmlns:xlink="http://www.w3.org/1999/xlink" width="20" height="20" viewBox="0 0 20 20">
  <defs>
    <clipPath id="clip-path">
      <rect id="Rectangle_148262" data-name="Rectangle 148262" width="20" height="20" transform="translate(35 13)" fill="var(--tx1)" stroke="var(--tx1)" stroke-width="1"/>
    </clipPath>
  </defs>
  <g id="Mask_Group_390" data-name="Mask Group 390" transform="translate(-35 -13)" clip-path="url(#clip-path)">
    <g id="Contacts" transform="translate(35 13)">
      <path id="Path_85044" data-name="Path 85044" d="M15.417,0H6.25A3.757,3.757,0,0,0,2.714,2.5H1.25a.417.417,0,1,0,0,.833H2.523A3.819,3.819,0,0,0,2.5,3.75V5.833H1.25a.417.417,0,0,0,0,.833H2.5V9.583H1.25a.417.417,0,1,0,0,.833H2.5v2.917H1.25a.417.417,0,1,0,0,.833H2.5V16.25a3.819,3.819,0,0,0,.023.417H1.25a.417.417,0,0,0,0,.833H2.714A3.757,3.757,0,0,0,6.25,20h9.167a3.755,3.755,0,0,0,3.75-3.75V3.75A3.755,3.755,0,0,0,15.417,0Zm2.917,16.25a2.92,2.92,0,0,1-2.917,2.917H6.25A2.92,2.92,0,0,1,3.333,16.25V3.75A2.92,2.92,0,0,1,6.25.833h9.167A2.92,2.92,0,0,1,18.333,3.75ZM10.833,10a2.5,2.5,0,1,0-2.5-2.5A2.5,2.5,0,0,0,10.833,10Zm0-4.167A1.667,1.667,0,1,1,9.167,7.5,1.668,1.668,0,0,1,10.833,5.833ZM15,15v.417a.417.417,0,0,1-.833,0V15A3.333,3.333,0,1,0,7.5,15v.417a.417.417,0,1,1-.833,0V15A4.167,4.167,0,1,1,15,15Z" fill="var(--tx1)"/>
    </g>
  </g>
</svg>
