<svg xmlns="http://www.w3.org/2000/svg" xmlns:xlink="http://www.w3.org/1999/xlink" width="18" height="18" viewBox="0 0 18 18">
  <defs>
    <clipPath id="clip-path">
      <rect id="Rectangle_148351" data-name="Rectangle 148351" width="18" height="18" fill="#707070" stroke="#707070" stroke-width="1"/>
    </clipPath>
  </defs>
  <g id="Mask_Group_421" data-name="Mask Group 421" clip-path="url(#clip-path)">
    <g id="connetcion" transform="translate(0.001 0)">
      <path id="Path_85110" data-name="Path 85110" d="M18,8.986a3,3,0,0,0-1.955-2.8l-.028-.068a7.551,7.551,0,0,0-3.97-4.064L11.8,1.945a2.985,2.985,0,0,0-5.6,0l-.313.141a7.641,7.641,0,0,0-3.926,4.1,2.985,2.985,0,0,0-.022,5.6l.1.225a7.574,7.574,0,0,0,3.871,3.92l.295.132a2.986,2.986,0,0,0,5.594,0l.275-.122a7.644,7.644,0,0,0,3.981-4.15A3,3,0,0,0,18,8.986ZM9,1.5A1.5,1.5,0,1,1,7.5,3,1.5,1.5,0,0,1,9,1.5ZM2.991,7.488l.061.023.007-.019a1.434,1.434,0,1,1-.069,0ZM9,16.5A1.5,1.5,0,1,1,10.5,15,1.5,1.5,0,0,1,9,16.5Zm2.919-2.164a2.993,2.993,0,0,0-5.839,0,6.069,6.069,0,0,1-2.423-2.425,2.993,2.993,0,0,0,.019-5.834,6.142,6.142,0,0,1,2.4-2.4,2.993,2.993,0,0,0,5.838,0,6.168,6.168,0,0,1,2.406,2.394,2.993,2.993,0,0,0,.011,5.838,6.154,6.154,0,0,1-2.416,2.427ZM15,10.486a1.5,1.5,0,1,1,1.5-1.5A1.5,1.5,0,0,1,15,10.486Z" transform="translate(0 -0.001)" fill="#707070"/>
    </g>
  </g>
</svg>
