<svg xmlns="http://www.w3.org/2000/svg" xmlns:xlink="http://www.w3.org/1999/xlink" width="18" height="18" viewBox="0 0 18 18">
  <defs>
    <clipPath id="clip-path">
      <rect id="Rectangle_148350" data-name="Rectangle 148350" width="18" height="18" fill="#707070" stroke="#707070" stroke-width="1"/>
    </clipPath>
  </defs>
  <g id="Mask_Group_420" data-name="Mask Group 420" clip-path="url(#clip-path)">
    <g id="insights" transform="translate(0 0)">
      <path id="Path_85108" data-name="Path 85108" d="M17.25,16.5H3.75A2.25,2.25,0,0,1,1.5,14.25V.75A.75.75,0,1,0,0,.75v13.5A3.755,3.755,0,0,0,3.75,18h13.5a.75.75,0,0,0,0-1.5Z" transform="translate(0 0)" fill="#707070"/>
      <path id="Path_85109" data-name="Path 85109" d="M4.5,15a.75.75,0,0,0,.75-.75V9a.75.75,0,0,0-1.5,0v5.25A.75.75,0,0,0,4.5,15Zm3-7.5v6.75a.75.75,0,0,0,1.5,0V7.5a.75.75,0,0,0-1.5,0Zm3.75,2.25v4.5a.75.75,0,0,0,1.5,0V9.75a.75.75,0,0,0-1.5,0Zm3.75-3v7.5a.75.75,0,0,0,1.5,0V6.75a.75.75,0,0,0-1.5,0Zm-10.5,0a.75.75,0,0,0,.53-.22l2.69-2.69a.769.769,0,0,1,1.06,0L10.409,5.47a2.25,2.25,0,0,0,3.181,0L17.78,1.28A.75.75,0,1,0,16.72.22L12.53,4.409a.75.75,0,0,1-1.06,0L9.841,2.78a2.25,2.25,0,0,0-3.181,0L3.97,5.47A.75.75,0,0,0,4.5,6.75Z" transform="translate(0 0)" fill="#707070"/>
    </g>
  </g>
</svg>
