<svg xmlns="http://www.w3.org/2000/svg" xmlns:xlink="http://www.w3.org/1999/xlink" width="18" height="18" viewBox="0 0 18 18">
  <defs>
    <clipPath id="clip-path">
      <rect id="Rectangle_148351" data-name="Rectangle 148351" width="18" height="18" fill="#1b1d21" stroke="#707070" stroke-width="1"/>
    </clipPath>
  </defs>
  <g id="Mask_Group_421" data-name="Mask Group 421" clip-path="url(#clip-path)">
    <path id="users-alt" d="M9,12a3,3,0,1,1,3-3A3,3,0,0,1,9,12ZM9,7.5A1.5,1.5,0,1,0,10.5,9,1.5,1.5,0,0,0,9,7.5Zm4.5,9.75a4.5,4.5,0,1,0-9,0,.75.75,0,0,0,1.5,0,3,3,0,1,1,6,0,.75.75,0,0,0,1.5,0ZM13.5,6a3,3,0,1,1,3-3A3,3,0,0,1,13.5,6Zm0-4.5A1.5,1.5,0,1,0,15,3,1.5,1.5,0,0,0,13.5,1.5ZM18,11.25a4.5,4.5,0,0,0-4.5-4.5.75.75,0,0,0,0,1.5,3,3,0,0,1,3,3,.75.75,0,0,0,1.5,0ZM4.5,6a3,3,0,1,1,3-3A3,3,0,0,1,4.5,6Zm0-4.5A1.5,1.5,0,1,0,6,3,1.5,1.5,0,0,0,4.5,1.5Zm-3,9.75a3,3,0,0,1,3-3,.75.75,0,0,0,0-1.5A4.5,4.5,0,0,0,0,11.25a.75.75,0,0,0,1.5,0Z" fill="#1b1d21"/>
  </g>
</svg>
