<svg id="delete_1_" data-name="delete (1)" xmlns="http://www.w3.org/2000/svg" width="14.625" height="18" viewBox="0 0 14.625 18">
  <path id="Path_85018" data-name="Path 85018" d="M15.894,3H13.627a3.687,3.687,0,0,0-3.583-3H8.581A3.687,3.687,0,0,0,5,3H2.731a.75.75,0,0,0,0,1.5h.731v9.75A3.708,3.708,0,0,0,7.119,18h4.387a3.708,3.708,0,0,0,3.656-3.75V4.5h.731a.75.75,0,0,0,0-1.5ZM8.581,1.5h1.462A2.2,2.2,0,0,1,12.112,3h-5.6A2.2,2.2,0,0,1,8.581,1.5ZM13.7,14.25a2.222,2.222,0,0,1-2.194,2.25H7.119a2.222,2.222,0,0,1-2.194-2.25V4.5H13.7Z" transform="translate(-2)" fill="#e6322d"/>
  <path id="Path_85019" data-name="Path 85019" d="M9.731,16a.741.741,0,0,0,.731-.75v-4.5A.731.731,0,1,0,9,10.75v4.5A.741.741,0,0,0,9.731,16Z" transform="translate(-3.882 -2.5)" fill="#e6322d"/>
  <path id="Path_85020" data-name="Path 85020" d="M13.731,16a.741.741,0,0,0,.731-.75v-4.5a.731.731,0,1,0-1.462,0v4.5A.741.741,0,0,0,13.731,16Z" transform="translate(-4.957 -2.5)" fill="#e6322d"/>
</svg>
