<svg id="edit_3_" data-name="edit (3)" xmlns="http://www.w3.org/2000/svg" width="16" height="16" viewBox="0 0 16 16">
  <path id="Path_85271" data-name="Path 85271" d="M14.1.635,5.976,8.763A3.311,3.311,0,0,0,5,11.12v.9a.667.667,0,0,0,.667.667h.9a3.311,3.311,0,0,0,2.357-.976l8.128-8.128a2.083,2.083,0,0,0,0-2.943,2.129,2.129,0,0,0-2.943,0Zm2,2L7.976,10.763a2.013,2.013,0,0,1-1.414.585H6.333V11.12a2.013,2.013,0,0,1,.585-1.414l8.128-8.128a.765.765,0,0,1,1.057,0,.749.749,0,0,1,0,1.057Z" transform="translate(-1.667 -0.015)" fill="#0b57d0"/>
  <path id="Path_85272" data-name="Path 85272" d="M15.333,5.986a.667.667,0,0,0-.667.667V10H12a2,2,0,0,0-2,2v2.667H3.333a2,2,0,0,1-2-2V3.333a2,2,0,0,1,2-2H9.361A.667.667,0,0,0,9.361,0H3.333A3.337,3.337,0,0,0,0,3.333v9.333A3.337,3.337,0,0,0,3.333,16H10.9a3.312,3.312,0,0,0,2.357-.976l1.771-1.772A3.312,3.312,0,0,0,16,10.9V6.653A.667.667,0,0,0,15.333,5.986Zm-3.023,8.1a1.983,1.983,0,0,1-.977.533V12A.667.667,0,0,1,12,11.333h2.617a2.011,2.011,0,0,1-.533.976Z" fill="#0b57d0"/>
</svg>
