<svg xmlns="http://www.w3.org/2000/svg" xmlns:xlink="http://www.w3.org/1999/xlink" width="18" height="18" viewBox="0 0 18 18">
  <defs>
    <clipPath id="clip-path">
      <rect id="Rectangle_148373" data-name="Rectangle 148373" width="18" height="18" transform="translate(410 367)" fill="#fff" stroke="#707070" stroke-width="1"/>
    </clipPath>
  </defs>
  <g id="Mask_Group_423" data-name="Mask Group 423" transform="translate(-410 -367)" clip-path="url(#clip-path)">
    <g id="mail_1_" data-name="mail (1)" transform="translate(410 367)">
      <path id="Path_85113" data-name="Path 85113" d="M11.25,3.375A.375.375,0,0,1,11.625,3H14.25V.375a.375.375,0,1,1,.75,0V3h2.625a.375.375,0,0,1,0,.75H15V6.375a.375.375,0,0,1-.75,0V3.75H11.625A.375.375,0,0,1,11.25,3.375ZM17.625,5.25a.375.375,0,0,0-.375.375v9a2.628,2.628,0,0,1-2.625,2.625H3.375A2.628,2.628,0,0,1,.75,14.625V5.9l5.863,5.864a3.38,3.38,0,0,0,4.771,0l2.908-2.872a.376.376,0,0,0-.528-.534l-2.909,2.873a2.629,2.629,0,0,1-3.713,0l-6.3-6.3A2.63,2.63,0,0,1,3.375,3h6a.375.375,0,0,0,0-.75h-6A3.379,3.379,0,0,0,0,5.625v9A3.379,3.379,0,0,0,3.375,18h11.25A3.379,3.379,0,0,0,18,14.625v-9A.375.375,0,0,0,17.625,5.25Z" fill="#fff"/>
    </g>
  </g>
</svg>
