<svg id="export" xmlns="http://www.w3.org/2000/svg" width="16" height="16" viewBox="0 0 16 16">
  <path id="Path_85093" data-name="Path 85093" d="M13.333,7.333v5.333A3.337,3.337,0,0,1,10,16H3.333A3.337,3.337,0,0,1,0,12.667V6A3.337,3.337,0,0,1,3.333,2.667H8.667A.667.667,0,1,1,8.667,4H3.333a2,2,0,0,0-2,2v6.667a2,2,0,0,0,2,2H10a2,2,0,0,0,2-2V7.333a.667.667,0,0,1,1.333,0ZM14,0H9.333a.667.667,0,1,0,0,1.333h4.391l-8.2,8.2a.667.667,0,1,0,.943.943l8.2-8.2V6.667a.667.667,0,1,0,1.333,0V2A2,2,0,0,0,14,0Z" fill="#707070"/>
</svg>
