<svg xmlns="http://www.w3.org/2000/svg" xmlns:xlink="http://www.w3.org/1999/xlink" width="20" height="20" viewBox="0 0 20 20">
  <defs>
    <clipPath id="clip-path">
      <rect id="Rectangle_148262" data-name="Rectangle 148262" width="20" height="20" transform="translate(35 13)" fill="var(--tx1)" stroke="var(--tx1)" stroke-width="1"/>
    </clipPath>
  </defs>
  <g id="Mask_Group_387" data-name="Mask Group 387" transform="translate(-35 -13)" clip-path="url(#clip-path)">
    <path id="house-window" d="M12.081,15H7.915a1.251,1.251,0,0,1-1.25-1.25V9.582a1.251,1.251,0,0,1,1.25-1.25h4.166a1.251,1.251,0,0,1,1.25,1.25v4.166A1.251,1.251,0,0,1,12.081,15ZM7.915,9.165a.418.418,0,0,0-.417.417v4.166a.418.418,0,0,0,.417.417h4.166a.418.418,0,0,0,.417-.417V9.582a.418.418,0,0,0-.417-.417ZM16.247,20H3.749A3.754,3.754,0,0,1,0,16.247V7.966A3.742,3.742,0,0,1,1.652,4.859L7.9.642a3.729,3.729,0,0,1,4.194,0l6.248,4.217A3.743,3.743,0,0,1,20,7.966v8.281A3.754,3.754,0,0,1,16.247,20ZM10,.83a2.9,2.9,0,0,0-1.631.5L2.118,5.548A2.912,2.912,0,0,0,.833,7.965v8.281a2.919,2.919,0,0,0,2.916,2.916h12.5a2.919,2.919,0,0,0,2.916-2.916V7.966a2.912,2.912,0,0,0-1.285-2.417L11.63,1.332A2.915,2.915,0,0,0,10,.83Z" transform="translate(35.002 13.003)" fill="var(--tx1)"/>
  </g>
</svg>
