<svg xmlns="http://www.w3.org/2000/svg" xmlns:xlink="http://www.w3.org/1999/xlink" width="20" height="20" viewBox="0 0 20 20">
  <defs>
    <clipPath id="clip-path">
      <rect id="Rectangle_148262" data-name="Rectangle 148262" width="20" height="20" transform="translate(35 13)" fill="var(--tx1)" stroke="var(--tx1)" stroke-width="1"/>
    </clipPath>
  </defs>
  <g id="Mask_Group_397" data-name="Mask Group 397" transform="translate(-35 -13)" clip-path="url(#clip-path)">
    <g id="Inventory" transform="translate(35 13)">
      <path id="Path_85050" data-name="Path 85050" d="M12.917,12.5H16.25v.833H12.917ZM20,11.25V20H0V11.25A2.085,2.085,0,0,1,2.083,9.167H4.167V2.083A2.085,2.085,0,0,1,6.25,0h7.5a2.085,2.085,0,0,1,2.083,2.083V9.167h2.083A2.085,2.085,0,0,1,20,11.25ZM5,9.167H15V2.083A1.252,1.252,0,0,0,13.75.833H6.25A1.252,1.252,0,0,0,5,2.083Zm-4.167,10h8.75V10h-7.5a1.252,1.252,0,0,0-1.25,1.25ZM19.167,11.25A1.252,1.252,0,0,0,17.917,10h-7.5v9.167h8.75ZM3.75,12.5v.833H7.083V12.5ZM8.333,4.167h3.333V3.333H8.333Z" fill="var(--tx1)"/>
    </g>
  </g>
</svg>
