<svg xmlns="http://www.w3.org/2000/svg" xmlns:xlink="http://www.w3.org/1999/xlink" width="20" height="20" viewBox="0 0 20 20">
  <defs>
    <clipPath id="clip-path">
      <rect id="Rectangle_148262" data-name="Rectangle 148262" width="20" height="20" transform="translate(35 13)" fill="var(--tx1)" stroke="var(--tx1)" stroke-width="1"/>
    </clipPath>
  </defs>
  <g id="Mask_Group_393" data-name="Mask Group 393" transform="translate(-35 -13)" clip-path="url(#clip-path)">
    <path id="Notifications" d="M19.838,12.124l-1.5-5.367a6.969,6.969,0,0,0-5.417-4.968s-.008-.017-.017-.017A6.948,6.948,0,0,0,1.489,5.434L.058,10.643a3.561,3.561,0,0,0,3.478,4.335H3.9a3.641,3.641,0,0,0,.208.333A3.538,3.538,0,0,0,6.89,16.642H8.23a3.4,3.4,0,0,0,6.79,0h1.39a3.556,3.556,0,0,0,3.428-4.518Zm-18.431,1a2.729,2.729,0,0,1-.541-2.28L2.3,5.633A6.093,6.093,0,0,1,8.28.832a6.162,6.162,0,0,1,3.087.84A6.911,6.911,0,0,0,4.843,7.09L3.412,12.3a3.446,3.446,0,0,0,.1,1.839,2.677,2.677,0,0,1-2.105-1.023Zm10.218,6.016a2.573,2.573,0,0,1-2.563-2.5h5.126A2.573,2.573,0,0,1,11.625,19.139Zm6.956-4.4a2.708,2.708,0,0,1-2.172,1.073H6.89a2.734,2.734,0,0,1-2.671-3.3L5.65,7.3a6.093,6.093,0,0,1,5.983-4.8,6.156,6.156,0,0,1,5.908,4.485l1.5,5.367a2.681,2.681,0,0,1-.458,2.38Z" transform="translate(35.027 13.015)" fill="var(--tx1)"/>
  </g>
</svg>
