<svg xmlns="http://www.w3.org/2000/svg" xmlns:xlink="http://www.w3.org/1999/xlink" width="18" height="18" viewBox="0 0 18 18">
  <defs>
    <clipPath id="clip-path">
      <rect id="Rectangle_148378" data-name="Rectangle 148378" width="18" height="18" transform="translate(410 367)" fill="#fff" stroke="#707070" stroke-width="1"/>
    </clipPath>
  </defs>
  <g id="Mask_Group_425" data-name="Mask Group 425" transform="translate(-410 -367)" clip-path="url(#clip-path)">
    <path id="bells" d="M17.854,10.912l-1.348-4.83A6.272,6.272,0,0,0,11.63,1.61s-.007-.015-.015-.015A6.253,6.253,0,0,0,1.341,4.89L.052,9.578a3.2,3.2,0,0,0,3.13,3.9h.33a3.276,3.276,0,0,0,.187.3,3.185,3.185,0,0,0,2.5,1.2H7.407a3.056,3.056,0,0,0,6.111,0h1.251a3.2,3.2,0,0,0,3.085-4.067Zm-16.588.9A2.457,2.457,0,0,1,.779,9.758L2.067,5.07A5.484,5.484,0,0,1,7.452.749a5.546,5.546,0,0,1,2.778.756A6.219,6.219,0,0,0,4.359,6.381L3.071,11.069a3.1,3.1,0,0,0,.09,1.655A2.41,2.41,0,0,1,1.266,11.8Zm9.2,5.415a2.315,2.315,0,0,1-2.307-2.247h4.613A2.315,2.315,0,0,1,10.462,17.225Zm6.261-3.962a2.437,2.437,0,0,1-1.955.966H6.2a2.46,2.46,0,0,1-2.4-2.973L5.085,6.568A5.484,5.484,0,0,1,10.47,2.247a5.541,5.541,0,0,1,5.317,4.037l1.348,4.83a2.413,2.413,0,0,1-.412,2.142Z" transform="translate(410.024 367.013)" fill="#fff"/>
  </g>
</svg>
