<svg xmlns="http://www.w3.org/2000/svg" xmlns:xlink="http://www.w3.org/1999/xlink" width="18" height="18" viewBox="0 0 18 18">
  <defs>
    <clipPath id="clip-path">
      <rect id="Rectangle_148372" data-name="Rectangle 148372" width="18" height="18" transform="translate(335 367)" fill="#fff" stroke="#707070" stroke-width="1"/>
    </clipPath>
  </defs>
  <g id="Mask_Group_422" data-name="Mask Group 422" transform="translate(-335 -367)" clip-path="url(#clip-path)">
    <g id="call_2_" data-name="call (2)" transform="translate(335 367)">
      <path id="Path_85112" data-name="Path 85112" d="M17.625,8.25a.375.375,0,0,1-.375-.375A7.133,7.133,0,0,0,10.125.75a.375.375,0,0,1,0-.75A7.884,7.884,0,0,1,18,7.875.375.375,0,0,1,17.625,8.25ZM15,7.875A4.881,4.881,0,0,0,10.125,3a.375.375,0,0,0,0,.75A4.129,4.129,0,0,1,14.25,7.875a.375.375,0,0,0,.75,0ZM16.675,16.7l.734-.844a2.013,2.013,0,0,0-.037-2.885l-1.835-1.4a2.021,2.021,0,0,0-2.852,0l-1.149,1.121A11.582,11.582,0,0,1,5.316,6.46L6.432,5.317A2.006,2.006,0,0,0,6.464,2.5L4.995.593A2.077,2.077,0,0,0,2.16.575l-.881.768A4.385,4.385,0,0,0,0,4.482C0,10.294,7.706,18,13.518,18a4.407,4.407,0,0,0,3.158-1.3ZM4.432,1.084,5.9,2.992a1.271,1.271,0,0,1,0,1.8L4.607,6.113a.376.376,0,0,0-.079.4,12.327,12.327,0,0,0,6.965,6.96.375.375,0,0,0,.4-.081L13.211,12.1l0,0a1.284,1.284,0,0,1,1.83.032l1.834,1.4a1.277,1.277,0,0,1-.017,1.812l-.734.844a3.651,3.651,0,0,1-2.609,1.058C8.148,17.25.75,9.852.75,4.482A3.641,3.641,0,0,1,1.79,1.89l.881-.769A1.286,1.286,0,0,1,3.583.746a1.2,1.2,0,0,1,.85.339Z" fill="#fff"/>
    </g>
  </g>
</svg>
