<svg xmlns="http://www.w3.org/2000/svg" xmlns:xlink="http://www.w3.org/1999/xlink" width="20" height="20" viewBox="0 0 20 20">
  <defs>
    <clipPath id="clip-path">
      <rect id="Rectangle_148262" data-name="Rectangle 148262" width="20" height="20" transform="translate(35 13)" fill="var(--tx1)" stroke="var(--tx1)" stroke-width="1"/>
    </clipPath>
  </defs>
  <g id="Mask_Group_394" data-name="Mask Group 394" transform="translate(-35 -13)" clip-path="url(#clip-path)">
    <g id="Pricing" transform="translate(35 13)">
      <path id="Path_85047" data-name="Path 85047" d="M10,0A10,10,0,1,0,20,10,10.011,10.011,0,0,0,10,0Zm0,19.167A9.167,9.167,0,1,1,19.167,10,9.177,9.177,0,0,1,10,19.167Zm3.333-7.188a2.191,2.191,0,0,1-2.188,2.188h-.728v1.25a.417.417,0,1,1-.833,0v-1.25H8.812a2.3,2.3,0,0,1-1.985-1.146.417.417,0,1,1,.722-.417,1.464,1.464,0,0,0,1.264.729h2.333a1.355,1.355,0,0,0,.215-2.693l-2.852-.458a2.188,2.188,0,0,1,.347-4.349h.728V4.583a.417.417,0,0,1,.833,0v1.25h.772a2.3,2.3,0,0,1,1.985,1.146.417.417,0,0,1-.722.417,1.464,1.464,0,0,0-1.264-.729H8.855A1.355,1.355,0,0,0,8.64,9.359l2.852.458a2.181,2.181,0,0,1,1.842,2.161Z" fill="var(--tx1)"/>
    </g>
  </g>
</svg>
