<svg id="refresh" xmlns="http://www.w3.org/2000/svg" width="15" height="15" viewBox="0 0 15 15">
  <path id="Path_85015" data-name="Path 85015" d="M7.546,1.25a6.306,6.306,0,0,1,4.468,1.875H10.055a.626.626,0,0,0-.627.625h0a.626.626,0,0,0,.627.625h2.6A1.163,1.163,0,0,0,13.82,3.214V.625A.626.626,0,0,0,13.192,0h0a.626.626,0,0,0-.627.625v1.3A7.522,7.522,0,0,0,.048,6.812.63.63,0,0,0,.676,7.5h0a.615.615,0,0,0,.62-.549,6.273,6.273,0,0,1,6.249-5.7Z" transform="translate(-0.046 0.001)" fill="#707070"/>
  <path id="Path_85016" data-name="Path 85016" d="M15.144,12a.615.615,0,0,0-.62.549A6.27,6.27,0,0,1,3.806,16.375H5.764a.626.626,0,0,0,.627-.625h0a.626.626,0,0,0-.627-.625h-2.6A1.162,1.162,0,0,0,2,16.285v2.589a.626.626,0,0,0,.627.625h0a.626.626,0,0,0,.627-.625v-1.3a7.522,7.522,0,0,0,12.516-4.889A.63.63,0,0,0,15.144,12Z" transform="translate(-0.774 -4.5)" fill="#707070"/>
</svg>
