<svg xmlns="http://www.w3.org/2000/svg" width="22.806" height="22.805" viewBox="0 0 22.806 22.805">
  <g id="chart_1_" data-name="chart (1)" transform="translate(0 -0.003)">
    <path id="Path_85057" data-name="Path 85057" d="M22.33,19.958H2.851V.478a.475.475,0,1,0-.95,0v19.48H.475a.475.475,0,1,0,0,.95H1.9v1.425a.475.475,0,1,0,.95,0V20.908H22.33a.475.475,0,1,0,0-.95Z" fill="#fff"/>
    <path id="Path_85058" data-name="Path 85058" d="M85.823,80.148a.475.475,0,0,1-.371-.772l3.8-4.751a.475.475,0,0,1,.344-.179.468.468,0,0,1,.362.139l1.47,1.471,2.537-4.229a.475.475,0,0,1,.38-.23.5.5,0,0,1,.4.178l1.271,1.59,1.69-8.04a.475.475,0,0,1,.8-.238l2.463,2.463,2.522-3.366a.475.475,0,0,1,.761.569h0l-2.851,3.8a.475.475,0,0,1-.716.051l-2.23-2.231-1.72,8.172a.475.475,0,0,1-.836.2L94.431,72.9l-2.5,4.165a.475.475,0,0,1-.743.1l-1.52-1.52-3.474,4.326A.475.475,0,0,1,85.823,80.148Z" transform="translate(-81.547 -61.141)" fill="#fff"/>
  </g>
</svg>
