<svg xmlns="http://www.w3.org/2000/svg" xmlns:xlink="http://www.w3.org/1999/xlink" width="20" height="20" viewBox="0 0 20 20">
  <defs>
    <clipPath id="clip-path">
      <rect id="Rectangle_148724" data-name="Rectangle 148724" width="20" height="20" transform="translate(35 16)" fill="#333" stroke="#707070" stroke-width="1"/>
    </clipPath>
  </defs>
  <g id="Mask_Group_480" data-name="Mask Group 480" transform="translate(-35 -16)" clip-path="url(#clip-path)">
    <g id="chart-histogram" transform="translate(35 16)">
      <path id="Path_85275" data-name="Path 85275" d="M19.167,18.333h-15a2.5,2.5,0,0,1-2.5-2.5v-15A.833.833,0,1,0,0,.833v15A4.172,4.172,0,0,0,4.167,20h15a.833.833,0,0,0,0-1.667Z"/>
      <path id="Path_85276" data-name="Path 85276" d="M5.833,18.5a.833.833,0,0,0,.833-.833V11.833a.833.833,0,1,0-1.667,0v5.833A.833.833,0,0,0,5.833,18.5Z" transform="translate(-0.833 -1.833)"/>
      <path id="Path_85277" data-name="Path 85277" d="M10,9.833v7.5a.833.833,0,1,0,1.667,0v-7.5a.833.833,0,0,0-1.667,0Z" transform="translate(-1.667 -1.5)"/>
      <path id="Path_85278" data-name="Path 85278" d="M15,12.833v5a.833.833,0,1,0,1.667,0v-5a.833.833,0,1,0-1.667,0Z" transform="translate(-2.5 -2)"/>
      <path id="Path_85279" data-name="Path 85279" d="M20,8.833v8.333a.833.833,0,1,0,1.667,0V8.833a.833.833,0,1,0-1.667,0Z" transform="translate(-3.333 -1.333)"/>
      <path id="Path_85280" data-name="Path 85280" d="M5.833,7.5a.833.833,0,0,0,.589-.244L9.411,4.267a.854.854,0,0,1,1.178,0l1.81,1.81a2.5,2.5,0,0,0,3.535,0l4.655-4.655A.833.833,0,1,0,19.411.244L14.756,4.9a.833.833,0,0,1-1.178,0l-1.81-1.809a2.5,2.5,0,0,0-3.535,0L5.244,6.077A.833.833,0,0,0,5.833,7.5Z" transform="translate(-0.833 0)"/>
    </g>
  </g>
</svg>
