<svg id="save" xmlns="http://www.w3.org/2000/svg" width="16" height="16" viewBox="0 0 16 16">
  <path id="Path_85091" data-name="Path 85091" d="M10.617,10a2.617,2.617,0,1,0,2.617,2.617A2.617,2.617,0,0,0,10.617,10Zm0,3.926a1.309,1.309,0,1,1,1.309-1.309A1.309,1.309,0,0,1,10.617,13.926Z" transform="translate(-2.617 -3.272)" fill="#707070"/>
  <path id="Path_85092" data-name="Path 85092" d="M15.024,2.748,13.252.976A3.311,3.311,0,0,0,10.9,0H3.333A3.337,3.337,0,0,0,0,3.333v9.333A3.337,3.337,0,0,0,3.333,16h9.333A3.337,3.337,0,0,0,16,12.667V5.1a3.311,3.311,0,0,0-.976-2.357ZM11.333,1.387V2a2,2,0,0,1-2,2H6.667a2,2,0,0,1-2-2V1.333H10.9a1.969,1.969,0,0,1,.438.053Zm3.333,11.28a2,2,0,0,1-2,2H3.333a2,2,0,0,1-2-2V3.333a2,2,0,0,1,2-2V2A3.337,3.337,0,0,0,6.667,5.333H9.333a3.327,3.327,0,0,0,3.308-3.083l1.44,1.44A2.013,2.013,0,0,1,14.667,5.1Z" transform="translate(0 0)" fill="#707070"/>
</svg>
