<svg xmlns="http://www.w3.org/2000/svg" xmlns:xlink="http://www.w3.org/1999/xlink" width="18" height="18" viewBox="0 0 18 18">
  <defs>
    <clipPath id="clip-path">
      <rect id="Rectangle_148374" data-name="Rectangle 148374" width="18" height="18" transform="translate(410 367)" fill="#fff" stroke="#707070" stroke-width="1"/>
    </clipPath>
  </defs>
  <g id="Mask_Group_424" data-name="Mask Group 424" transform="translate(-410 -367)" clip-path="url(#clip-path)">
    <g id="message_1_" data-name="message (1)" transform="translate(410 367)">
      <path id="Path_85114" data-name="Path 85114" d="M9.75,9A.75.75,0,1,1,9,8.25.75.75,0,0,1,9.75,9Zm3-.75A.75.75,0,1,0,13.5,9,.75.75,0,0,0,12.75,8.25Zm-7.5,0A.75.75,0,1,0,6,9,.75.75,0,0,0,5.25,8.25ZM18,9.266v5.222A3.515,3.515,0,0,1,14.488,18H9.849C4.577,18,.352,14.406.022,9.641A9,9,0,0,1,9.627.021,9.162,9.162,0,0,1,18,9.266Zm-.75,0A8.411,8.411,0,0,0,9.577.769,8.252,8.252,0,0,0,.77,9.589c.307,4.438,4.126,7.66,9.078,7.66h4.639a2.764,2.764,0,0,0,2.761-2.761V9.266Z" fill="#fff"/>
    </g>
  </g>
</svg>
