<svg xmlns="http://www.w3.org/2000/svg" xmlns:xlink="http://www.w3.org/1999/xlink" width="20" height="20" viewBox="0 0 20 20">
  <defs>
    <clipPath id="clip-path">
      <rect id="Rectangle_148262" data-name="Rectangle 148262" width="20" height="20" transform="translate(35 13)" fill="var(--tx1)" stroke="var(--tx1)" stroke-width="1"/>
    </clipPath>
  </defs>
  <g id="Mask_Group_400" data-name="Mask Group 400" transform="translate(-35 -13)" clip-path="url(#clip-path)">
    <g id="Thumbnails" transform="translate(35 12.996)">
      <path id="Path_85053" data-name="Path 85053" d="M7.5,5.833a.833.833,0,1,1,.833.833A.836.836,0,0,1,7.5,5.833ZM20,5.417V11.25A3.756,3.756,0,0,1,16.25,15H7.917a3.756,3.756,0,0,1-3.75-3.75V5.417a3.756,3.756,0,0,1,3.75-3.75H16.25A3.756,3.756,0,0,1,20,5.417ZM5.733,13.183l5.142-5.142a1.75,1.75,0,0,1,2.475,0l.867.867a.934.934,0,0,0,1.292,0L19.167,5.25A2.915,2.915,0,0,0,16.258,2.5H7.917A2.92,2.92,0,0,0,5,5.417V11.25A2.9,2.9,0,0,0,5.733,13.183ZM19.167,11.25V6.425L16.092,9.5a1.8,1.8,0,0,1-2.475,0l-.867-.867a.91.91,0,0,0-1.292,0L6.367,13.725a2.907,2.907,0,0,0,1.55.45H16.25a2.92,2.92,0,0,0,2.917-2.917Zm-5.158,5.517a2.931,2.931,0,0,1-1.925.733H3.75A2.92,2.92,0,0,1,.833,14.583V8.75A2.915,2.915,0,0,1,2.292,6.225a.414.414,0,1,0-.417-.717A3.762,3.762,0,0,0,0,8.758v5.833a3.756,3.756,0,0,0,3.75,3.75h8.333a3.781,3.781,0,0,0,2.483-.933.419.419,0,1,0-.558-.625Z" fill="var(--tx1)"/>
    </g>
  </g>
</svg>
